PathFileType	4	(X/Y/Z)	C:\Users\italobelli\Desktop\GitHub\PTbot_officialCBL\Personal_Results\FLX01_noisy1.trc
DataRate	CameraRate	NumFrames	NumMarkers	Units	OrigDataRate	OrigDataStartFrame	OrigNumFrames
106.533333	106.533333	38	9	m	106.533333	601	800
Frame#	Time		gu		centelbow		EpL		centpxt8		centijc7		ij		ts		aa		ai
			X1	Y1	Z1	X2	Y2	Z2	X3	Y3	Z3	X4	Y4	Z4	X5	Y5	Z5	X6	Y6	Z6	X7	Y7	Z7	X8	Y8	Z8	X9	Y9	Z9

601	5.632	-0.068154	-0.010886	0.16463	-0.014652	-0.23878	0.21355	0.0053067	-0.22735	0.23523	-0.046816	-0.15316	-0.008669	-0.046816	0.031938	-0.008669	0	0	0	-0.14482	0.020463	0.057203	-0.10046	0.018175	0.16801	-0.15076	-0.092944	0.062682
602	5.6414	-0.068203	-0.011104	0.16471	-0.017573	-0.23956	0.21286	0.0024948	-0.22848	0.23459	-0.046816	-0.15316	-0.008669	-0.046816	0.031938	-0.008669	0	0	0	-0.14462	0.020572	0.05718	-0.1005	0.018124	0.16808	-0.15074	-0.092835	0.062544
603	5.6508	-0.068255	-0.011317	0.1648	-0.020507	-0.24034	0.21215	-0.00033444	-0.2296	0.23394	-0.046816	-0.15316	-0.008669	-0.046816	0.031938	-0.008669	0	0	0	-0.14441	0.02068	0.057156	-0.10055	0.018074	0.16816	-0.15072	-0.092725	0.062408
604	5.6602	-0.068308	-0.011525	0.16488	-0.023451	-0.2411	0.21144	-0.0031766	-0.23071	0.23329	-0.046816	-0.15316	-0.008669	-0.046816	0.031938	-0.008669	0	0	0	-0.1442	0.020787	0.057132	-0.1006	0.018025	0.16823	-0.15069	-0.092615	0.062274
605	5.6696	-0.068363	-0.011728	0.16496	-0.026401	-0.24185	0.21073	-0.0060273	-0.23181	0.23264	-0.046816	-0.15316	-0.008669	-0.046816	0.031938	-0.008669	0	0	0	-0.14399	0.020893	0.057107	-0.10065	0.017978	0.1683	-0.15066	-0.092504	0.062142
606	5.679	-0.068419	-0.011927	0.16504	-0.029351	-0.24259	0.21001	-0.0088821	-0.23289	0.23198	-0.046816	-0.15316	-0.008669	-0.046816	0.031938	-0.008669	0	0	0	-0.14378	0.020998	0.057081	-0.1007	0.017932	0.16837	-0.15063	-0.092393	0.062012
607	5.6884	-0.068477	-0.012121	0.16512	-0.032297	-0.24332	0.20929	-0.011737	-0.23396	0.23131	-0.046816	-0.15316	-0.008669	-0.046816	0.031938	-0.008669	0	0	0	-0.14357	0.021101	0.057054	-0.10076	0.017887	0.16844	-0.1506	-0.092283	0.061883
608	5.6977	-0.068536	-0.012311	0.16519	-0.035236	-0.24404	0.20857	-0.014586	-0.23501	0.23065	-0.046816	-0.15316	-0.008669	-0.046816	0.031938	-0.008669	0	0	0	-0.14335	0.021204	0.057027	-0.10081	0.017844	0.16851	-0.15057	-0.092172	0.061757
609	5.7071	-0.068596	-0.012496	0.16527	-0.038162	-0.24475	0.20784	-0.017427	-0.23605	0.22998	-0.046816	-0.15316	-0.008669	-0.046816	0.031938	-0.008669	0	0	0	-0.14314	0.021305	0.057	-0.10087	0.017803	0.16858	-0.15053	-0.092062	0.061632
610	5.7165	-0.068656	-0.012676	0.16535	-0.041071	-0.24545	0.20712	-0.020254	-0.23707	0.22931	-0.046816	-0.15316	-0.008669	-0.046816	0.031938	-0.008669	0	0	0	-0.14292	0.021405	0.056972	-0.10092	0.017762	0.16865	-0.15049	-0.091952	0.061509
611	5.7259	-0.068716	-0.012852	0.16542	-0.043959	-0.24613	0.20639	-0.023063	-0.23807	0.22865	-0.046816	-0.15316	-0.008669	-0.046816	0.031938	-0.008669	0	0	0	-0.14271	0.021503	0.056944	-0.10098	0.017724	0.16871	-0.15045	-0.091842	0.061389
612	5.7353	-0.068777	-0.013023	0.16549	-0.046821	-0.2468	0.20567	-0.025849	-0.23905	0.22798	-0.046816	-0.15316	-0.008669	-0.046816	0.031938	-0.008669	0	0	0	-0.14249	0.0216	0.056915	-0.10104	0.017686	0.16878	-0.15041	-0.091733	0.061271
613	5.7447	-0.068837	-0.01319	0.16557	-0.049653	-0.24746	0.20494	-0.028609	-0.24001	0.22731	-0.046816	-0.15316	-0.008669	-0.046816	0.031938	-0.008669	0	0	0	-0.14227	0.021695	0.056886	-0.1011	0.017651	0.16884	-0.15036	-0.091625	0.061155
614	5.7541	-0.068897	-0.013352	0.16564	-0.052451	-0.2481	0.20422	-0.031337	-0.24096	0.22665	-0.046816	-0.15316	-0.008669	-0.046816	0.031938	-0.008669	0	0	0	-0.14206	0.021789	0.056857	-0.10116	0.017616	0.16891	-0.15032	-0.091518	0.061041
615	5.7635	-0.068956	-0.01351	0.16571	-0.05521	-0.24873	0.2035	-0.03403	-0.24188	0.22598	-0.046816	-0.15316	-0.008669	-0.046816	0.031938	-0.008669	0	0	0	-0.14184	0.021881	0.056827	-0.10121	0.017584	0.16897	-0.15027	-0.091412	0.060929
616	5.7728	-0.069015	-0.013664	0.16577	-0.057925	-0.24935	0.20279	-0.036683	-0.24278	0.22532	-0.046816	-0.15316	-0.008669	-0.046816	0.031938	-0.008669	0	0	0	-0.14163	0.021971	0.056798	-0.10127	0.017552	0.16903	-0.15022	-0.091307	0.06082
617	5.7822	-0.069072	-0.013813	0.16584	-0.060593	-0.24995	0.20208	-0.039291	-0.24366	0.22467	-0.046816	-0.15316	-0.008669	-0.046816	0.031938	-0.008669	0	0	0	-0.14142	0.02206	0.056768	-0.10133	0.017523	0.16909	-0.15017	-0.091203	0.060712
618	5.7916	-0.069128	-0.013958	0.1659	-0.063209	-0.25053	0.20137	-0.04185	-0.24452	0.22402	-0.046816	-0.15316	-0.008669	-0.046816	0.031938	-0.008669	0	0	0	-0.14121	0.022146	0.056738	-0.10138	0.017495	0.16914	-0.15012	-0.091101	0.060608
619	5.801	-0.069182	-0.014099	0.16597	-0.065768	-0.2511	0.20067	-0.044356	-0.24535	0.22337	-0.046816	-0.15316	-0.008669	-0.046816	0.031938	-0.008669	0	0	0	-0.141	0.022231	0.056708	-0.10144	0.017468	0.1692	-0.15007	-0.091	0.060505
620	5.8104	-0.069234	-0.014235	0.16603	-0.068266	-0.25165	0.19998	-0.046804	-0.24616	0.22273	-0.046816	-0.15316	-0.008669	-0.046816	0.031938	-0.008669	0	0	0	-0.14079	0.022314	0.056678	-0.1015	0.017443	0.16925	-0.15002	-0.0909	0.060405
621	5.8198	-0.069284	-0.014368	0.16609	-0.070699	-0.25219	0.19929	-0.049189	-0.24695	0.2221	-0.046816	-0.15316	-0.008669	-0.046816	0.031938	-0.008669	0	0	0	-0.14059	0.022395	0.056648	-0.10155	0.017419	0.1693	-0.14996	-0.090803	0.060308
622	5.8292	-0.069332	-0.014496	0.16615	-0.073063	-0.25271	0.19861	-0.051508	-0.24771	0.22148	-0.046816	-0.15316	-0.008669	-0.046816	0.031938	-0.008669	0	0	0	-0.14039	0.022474	0.056618	-0.1016	0.017398	0.16935	-0.14991	-0.090707	0.060213
623	5.8385	-0.069377	-0.01462	0.1662	-0.075352	-0.25321	0.19795	-0.053756	-0.24844	0.22086	-0.046816	-0.15316	-0.008669	-0.046816	0.031938	-0.008669	0	0	0	-0.14019	0.02255	0.056588	-0.10165	0.017377	0.1694	-0.14985	-0.090613	0.060121
624	5.8479	-0.069419	-0.01474	0.16626	-0.077562	-0.25369	0.19729	-0.055929	-0.24914	0.22025	-0.046816	-0.15316	-0.008669	-0.046816	0.031938	-0.008669	0	0	0	-0.14	0.022625	0.056558	-0.1017	0.017359	0.16945	-0.1498	-0.090522	0.060031
625	5.8573	-0.069458	-0.014856	0.16631	-0.07969	-0.25415	0.19664	-0.058021	-0.24982	0.21966	-0.046816	-0.15316	-0.008669	-0.046816	0.031938	-0.008669	0	0	0	-0.13981	0.022697	0.056529	-0.10174	0.017342	0.16949	-0.14974	-0.090433	0.059944
626	5.8667	-0.069494	-0.014968	0.16636	-0.08173	-0.2546	0.19601	-0.06003	-0.25047	0.21907	-0.046816	-0.15316	-0.008669	-0.046816	0.031938	-0.008669	0	0	0	-0.13962	0.022767	0.056499	-0.10179	0.017327	0.16953	-0.14968	-0.090346	0.05986
627	5.8761	-0.069526	-0.015075	0.16641	-0.083679	-0.25502	0.19538	-0.061949	-0.25109	0.21849	-0.046816	-0.15316	-0.008669	-0.046816	0.031938	-0.008669	0	0	0	-0.13944	0.022834	0.05647	-0.10183	0.017313	0.16957	-0.14962	-0.090262	0.059778
628	5.8855	-0.069555	-0.015179	0.16645	-0.085531	-0.25543	0.19477	-0.063775	-0.25168	0.21793	-0.046816	-0.15316	-0.008669	-0.046816	0.031938	-0.008669	0	0	0	-0.13927	0.022899	0.056441	-0.10187	0.017301	0.16961	-0.14956	-0.09018	0.059699
629	5.8949	-0.069579	-0.015279	0.1665	-0.087283	-0.25581	0.19418	-0.065504	-0.25224	0.21737	-0.046816	-0.15316	-0.008669	-0.046816	0.031938	-0.008669	0	0	0	-0.13909	0.022962	0.056413	-0.10191	0.017291	0.16964	-0.14951	-0.090101	0.059623
630	5.9043	-0.069599	-0.015375	0.16654	-0.088929	-0.25618	0.19359	-0.067131	-0.25277	0.21684	-0.046816	-0.15316	-0.008669	-0.046816	0.031938	-0.008669	0	0	0	-0.13893	0.023022	0.056385	-0.10194	0.017282	0.16967	-0.14945	-0.090025	0.05955
631	5.9136	-0.069614	-0.015468	0.16658	-0.090467	-0.25652	0.19303	-0.068651	-0.25326	0.21631	-0.046816	-0.15316	-0.008669	-0.046816	0.031938	-0.008669	0	0	0	-0.13877	0.023079	0.056357	-0.10197	0.017275	0.1697	-0.14939	-0.089952	0.059479
632	5.923	-0.069625	-0.015556	0.16661	-0.09189	-0.25684	0.19248	-0.070061	-0.25372	0.2158	-0.046816	-0.15316	-0.008669	-0.046816	0.031938	-0.008669	0	0	0	-0.13861	0.023134	0.05633	-0.102	0.01727	0.16972	-0.14933	-0.089882	0.059412
633	5.9324	-0.069631	-0.015641	0.16665	-0.093196	-0.25714	0.19194	-0.071355	-0.25415	0.21531	-0.046816	-0.15316	-0.008669	-0.046816	0.031938	-0.008669	0	0	0	-0.13846	0.023186	0.056303	-0.10202	0.017267	0.16975	-0.14927	-0.089816	0.059347
634	5.9418	-0.069631	-0.015721	0.16668	-0.094378	-0.25742	0.19143	-0.072529	-0.25455	0.21483	-0.046816	-0.15316	-0.008669	-0.046816	0.031938	-0.008669	0	0	0	-0.13832	0.023236	0.056277	-0.10204	0.017265	0.16976	-0.14921	-0.089753	0.059286
635	5.9512	-0.069625	-0.015799	0.16671	-0.095434	-0.25768	0.19093	-0.073579	-0.25491	0.21436	-0.046816	-0.15316	-0.008669	-0.046816	0.031938	-0.008669	0	0	0	-0.13818	0.023282	0.056252	-0.10206	0.017265	0.16978	-0.14915	-0.089693	0.059228
636	5.9606	-0.069614	-0.015872	0.16673	-0.096358	-0.25791	0.19045	-0.074501	-0.25523	0.21392	-0.046816	-0.15316	-0.008669	-0.046816	0.031938	-0.008669	0	0	0	-0.13806	0.023325	0.056227	-0.10207	0.017267	0.16979	-0.14909	-0.089637	0.059172
637	5.97	-0.069597	-0.015942	0.16676	-0.097146	-0.25812	0.18999	-0.07529	-0.25552	0.21349	-0.046816	-0.15316	-0.008669	-0.046816	0.031938	-0.008669	0	0	0	-0.13794	0.023366	0.056202	-0.10208	0.017271	0.1698	-0.14903	-0.089585	0.05912
638	5.9793	-0.069574	-0.016008	0.16678	-0.097795	-0.2583	0.18956	-0.075941	-0.25577	0.21309	-0.046816	-0.15316	-0.008669	-0.046816	0.031938	-0.008669	0	0	0	-0.13782	0.023403	0.056179	-0.10208	0.017276	0.16981	-0.14898	-0.089537	0.059071
